<?xml version="1.0" encoding="UTF-8"?>
<svg width="258px" height="224px" viewBox="0 0 258 224" version="1.1" xmlns="http://www.w3.org/2000/svg" xmlns:xlink="http://www.w3.org/1999/xlink">
    <!-- Generator: Sketch 44.1 (41455) - http://www.bohemiancoding.com/sketch -->
    <title>Illustration</title>
    <desc>Created with Sketch.</desc>
    <defs>
        <filter x="-7.5%" y="-7.5%" width="115.0%" height="115.0%" filterUnits="objectBoundingBox" id="filter-1">
            <feOffset dx="0" dy="0" in="SourceAlpha" result="shadowOffsetOuter1"></feOffset>
            <feGaussianBlur stdDeviation="5" in="shadowOffsetOuter1" result="shadowBlurOuter1"></feGaussianBlur>
            <feColorMatrix values="0 0 0 0 0   0 0 0 0 0   0 0 0 0 0  0 0 0 0.2 0" type="matrix" in="shadowBlurOuter1" result="shadowMatrixOuter1"></feColorMatrix>
            <feMerge>
                <feMergeNode in="shadowMatrixOuter1"></feMergeNode>
                <feMergeNode in="SourceGraphic"></feMergeNode>
            </feMerge>
        </filter>
        <circle id="path-2" cx="100" cy="100" r="100"></circle>
        <filter x="-23.3%" y="-23.3%" width="146.5%" height="146.5%" filterUnits="objectBoundingBox" id="filter-4">
            <feOffset dx="0" dy="0" in="SourceAlpha" result="shadowOffsetOuter1"></feOffset>
            <feGaussianBlur stdDeviation="10" in="shadowOffsetOuter1" result="shadowBlurOuter1"></feGaussianBlur>
            <feColorMatrix values="0 0 0 0 0   0 0 0 0 0   0 0 0 0 0  0 0 0 0.2 0" type="matrix" in="shadowBlurOuter1" result="shadowMatrixOuter1"></feColorMatrix>
            <feMerge>
                <feMergeNode in="shadowMatrixOuter1"></feMergeNode>
                <feMergeNode in="SourceGraphic"></feMergeNode>
            </feMerge>
        </filter>
        <circle id="path-5" cx="64.5" cy="64.5" r="64.5"></circle>
        <filter x="-14.2%" y="-19.3%" width="128.0%" height="137.9%" filterUnits="objectBoundingBox" id="filter-7">
            <feOffset dx="0" dy="0" in="SourceAlpha" result="shadowOffsetOuter1"></feOffset>
            <feGaussianBlur stdDeviation="10" in="shadowOffsetOuter1" result="shadowBlurOuter1"></feGaussianBlur>
            <feColorMatrix values="0 0 0 0 0   0 0 0 0 0   0 0 0 0 0  0 0 0 0.2 0" type="matrix" in="shadowBlurOuter1" result="shadowMatrixOuter1"></feColorMatrix>
            <feMerge>
                <feMergeNode in="shadowMatrixOuter1"></feMergeNode>
                <feMergeNode in="SourceGraphic"></feMergeNode>
            </feMerge>
        </filter>
        <path d="M25.5530381,25.5238579 C50.1493966,25.5238577 50.9428278,0.0873096214 50.9428278,0.087309808 C50.9428278,0.0873099946 40.3688624,0.087309808 26.3464687,0.087309808 C12.3240751,0.087309808 0.797993059,0.0873093881 0.163248316,0.087309808 C-0.471496428,0.0873102279 0.956679502,25.5238581 25.5530381,25.5238579 Z" id="path-8"></path>
        <path d="M51.0395935,28.0702857 C51.082745,28.4841127 51.1048646,28.9041939 51.1048646,29.3294414 L51.1048646,107.075634 L51.1048646,107.075634 C51.1048646,113.703051 45.7322816,119.075634 39.1048646,119.075634 L12.3252851,119.075634 C5.69786814,119.075634 0.325285138,113.703051 0.325285138,107.075634 L0.325285138,29.3294414 L0.325285138,29.3294414 C0.325285138,28.9041939 0.347404779,28.4841127 0.390556253,28.0702857 C0.347289513,27.463246 0.325285138,26.850314 0.325285138,26.2322332 C0.325285138,12.1840156 11.6926812,0.795685134 25.7150749,0.795685134 C39.7374686,0.795685134 51.1048646,12.1840156 51.1048646,26.2322332 C51.1048646,26.850314 51.0828603,27.463246 51.0395935,28.0702857 Z" id="path-10"></path>
        <rect id="path-12" x="35.5457056" y="-4.26325641e-14" width="38.0846846" height="38.1548222"></rect>
        <rect id="path-13" x="0" y="2.84217094e-14" width="38.0846846" height="38.1548222"></rect>
        <rect id="path-14" x="35.5457056" y="-6.39488462e-14" width="38.0846846" height="38.1548222"></rect>
        <rect id="path-15" x="0" y="0" width="38.0846846" height="38.1548222"></rect>
    </defs>
    <g id="Page-1" stroke="none" stroke-width="1" fill="none" fill-rule="evenodd">
        <g id="help_main@2x" transform="translate(-319.000000, -403.000000)">
            <g id="Before" transform="translate(151.000000, 370.000000)">
                <g id="Illustration" transform="translate(178.000000, 0.000000)">
                    <g id="Badge" filter="url(#filter-1)" transform="translate(0.000000, 47.000000)">
                        <mask id="mask-3" fill="white">
                            <use xlink:href="#path-2"></use>
                        </mask>
                        <use id="Mask" fill="#00BB8A" xlink:href="#path-2"></use>
                        <g id="Stars" mask="url(#mask-3)" fill="#00D89F">
                            <g transform="translate(0.000000, 26.000000)" id="Rectangle-25">
                                <rect transform="translate(178.093923, 59.034247) rotate(-315.000000) translate(-178.093923, -59.034247) " x="174.61326" y="55.5616438" width="6.96132597" height="6.94520548" rx="1"></rect>
                                <rect transform="translate(185.055249, 19.678082) rotate(-315.000000) translate(-185.055249, -19.678082) " x="181.574586" y="16.2054795" width="6.96132597" height="6.94520548" rx="1"></rect>
                                <rect transform="translate(42.348066, 59.034247) rotate(-315.000000) translate(-42.348066, -59.034247) " x="38.8674033" y="55.5616438" width="6.96132597" height="6.94520548" rx="1"></rect>
                                <rect transform="translate(81.795580, 11.575342) rotate(-315.000000) translate(-81.795580, -11.575342) " x="78.3149171" y="8.10273973" width="6.96132597" height="6.94520548" rx="1"></rect>
                                <rect transform="translate(140.966851, 18.520548) rotate(-315.000000) translate(-140.966851, -18.520548) " x="137.486188" y="15.0479452" width="6.96132597" height="6.94520548" rx="1"></rect>
                                <rect transform="translate(44.668508, 122.698630) rotate(-315.000000) translate(-44.668508, -122.698630) " x="41.1878453" y="119.226027" width="6.96132597" height="6.94520548" rx="1"></rect>
                                <rect transform="translate(5.220994, 85.657534) rotate(-315.000000) translate(-5.220994, -85.657534) " x="1.74033149" y="82.1849315" width="6.96132597" height="6.94520548" rx="1"></rect>
                                <rect transform="translate(188.535912, 127.328767) rotate(-315.000000) translate(-188.535912, -127.328767) " x="185.055249" y="123.856164" width="6.96132597" height="6.94520548" rx="1"></rect>
                                <path d="M203.618785,107.650685 C203.618785,106.372108 204.648747,105.335616 205.939227,105.335616 L205.939227,105.335616 C207.220771,105.335616 208.259669,106.363194 208.259669,107.650685 L208.259669,107.650685 C208.259669,108.929262 207.229706,109.965753 205.939227,109.965753 L205.939227,109.965753 C204.657682,109.965753 203.618785,108.938176 203.618785,107.650685 L203.618785,107.650685 Z" opacity="0.385436101" transform="translate(205.939227, 107.650685) rotate(-315.000000) translate(-205.939227, -107.650685) "></path>
                                <path d="M145.607735,49.7739726 C145.607735,48.4953956 146.637697,47.4589041 147.928177,47.4589041 L147.928177,47.4589041 C149.209722,47.4589041 150.248619,48.4864816 150.248619,49.7739726 L150.248619,49.7739726 C150.248619,51.0525496 149.218656,52.0890411 147.928177,52.0890411 L147.928177,52.0890411 C146.646632,52.0890411 145.607735,51.0614636 145.607735,49.7739726 L145.607735,49.7739726 Z" opacity="0.385436101" transform="translate(147.928177, 49.773973) rotate(-315.000000) translate(-147.928177, -49.773973) "></path>
                                <path d="M29.5856354,96.0753425 C29.5856354,94.7967654 30.6155979,93.760274 31.9060773,93.760274 L31.9060773,93.760274 C33.1876221,93.760274 34.2265193,94.7878514 34.2265193,96.0753425 L34.2265193,96.0753425 C34.2265193,97.3539195 33.1965568,98.390411 31.9060773,98.390411 L31.9060773,98.390411 C30.6245326,98.390411 29.5856354,97.3628335 29.5856354,96.0753425 L29.5856354,96.0753425 Z" opacity="0.385436101" transform="translate(31.906077, 96.075342) rotate(-315.000000) translate(-31.906077, -96.075342) "></path>
                                <path d="M110.801105,3.47260274 C110.801105,2.19402572 111.831068,1.15753425 113.121547,1.15753425 L113.121547,1.15753425 C114.403092,1.15753425 115.441989,2.18511171 115.441989,3.47260274 L115.441989,3.47260274 C115.441989,4.75117976 114.412026,5.78767123 113.121547,5.78767123 L113.121547,5.78767123 C111.840002,5.78767123 110.801105,4.76009377 110.801105,3.47260274 L110.801105,3.47260274 Z" opacity="0.385436101" transform="translate(113.121547, 3.472603) rotate(-315.000000) translate(-113.121547, -3.472603) "></path>
                                <path d="M203.618785,165.527397 C203.618785,164.24882 204.648747,163.212329 205.939227,163.212329 L205.939227,163.212329 C207.220771,163.212329 208.259669,164.239906 208.259669,165.527397 L208.259669,165.527397 C208.259669,166.805974 207.229706,167.842466 205.939227,167.842466 L205.939227,167.842466 C204.657682,167.842466 203.618785,166.814888 203.618785,165.527397 L203.618785,165.527397 Z" opacity="0.385436101" transform="translate(205.939227, 165.527397) rotate(-315.000000) translate(-205.939227, -165.527397) "></path>
                                <path d="M17.9834254,153.952055 C17.9834254,152.673478 19.013388,151.636986 20.3038674,151.636986 L20.3038674,151.636986 C21.5854121,151.636986 22.6243094,152.664564 22.6243094,153.952055 L22.6243094,153.952055 C22.6243094,155.230632 21.5943468,156.267123 20.3038674,156.267123 L20.3038674,156.267123 C19.0223227,156.267123 17.9834254,155.239546 17.9834254,153.952055 L17.9834254,153.952055 Z" opacity="0.385436101" transform="translate(20.303867, 153.952055) rotate(-315.000000) translate(-20.303867, -153.952055) "></path>
                            </g>
                        </g>
                        <g id="Planete" filter="url(#filter-4)" mask="url(#mask-3)">
                            <g transform="translate(-0.284270, 154.715730) rotate(-25.000000) translate(0.284270, -154.715730) translate(-64.784270, 90.215730)">
                                <mask id="mask-6" fill="white">
                                    <use xlink:href="#path-5"></use>
                                </mask>
                                <use id="Mask" stroke="none" fill="#F4F4F4" fill-rule="evenodd" xlink:href="#path-5"></use>
                                <rect id="Rectangle-14" stroke="none" fill="#EDEDED" fill-rule="evenodd" mask="url(#mask-6)" x="6.30978261" y="18.2282609" width="116.380435" height="7.01086957"></rect>
                                <rect id="Rectangle-14-Copy-4" stroke="none" fill="#EDEDED" fill-rule="evenodd" mask="url(#mask-6)" x="-8.41304348" y="43.4673913" width="145.826087" height="11.2173913"></rect>
                                <rect id="Rectangle-14-Copy" stroke="none" fill="#E5E5E5" fill-rule="evenodd" mask="url(#mask-6)" x="6.30978261" y="18.2282609" width="116.380435" height="7.01086957"></rect>
                                <rect id="Rectangle-14-Copy-5" stroke="none" fill="#E8E8E8" fill-rule="evenodd" mask="url(#mask-6)" x="-4.20652174" y="54.6847826" width="145.826087" height="7.01086957"></rect>
                                <rect id="Rectangle-14-Copy-3" stroke="none" fill="#DBDBDB" fill-rule="evenodd" mask="url(#mask-6)" x="-4.20652174" y="36.4565217" width="135.309783" height="7.01086957"></rect>
                                <rect id="Rectangle-14-Copy-2" stroke="none" fill="#E0E0E0" fill-rule="evenodd" mask="url(#mask-6)" x="-4.20652174" y="25.2391304" width="145.826087" height="11.2173913"></rect>
                                <rect id="Rectangle-14-Copy-11" stroke="none" fill="#EDEDED" fill-rule="evenodd" mask="url(#mask-6)" x="-21.0326087" y="61.6956522" width="173.499979" height="7.01086957"></rect>
                                <rect id="Rectangle-14-Copy-10" stroke="none" fill="#EDEDED" fill-rule="evenodd" mask="url(#mask-6)" x="-43.4673913" y="93.9456522" width="217.397565" height="11.2173913"></rect>
                                <rect id="Rectangle-14-Copy-9" stroke="none" fill="#DBDBDB" fill-rule="evenodd" mask="url(#mask-6)" x="-21.0326087" y="68.7065217" width="173.499979" height="7.01086957"></rect>
                                <rect id="Rectangle-14-Copy-8" stroke="none" fill="#E8E8E8" fill-rule="evenodd" mask="url(#mask-6)" x="-37.1576087" y="105.163043" width="217.397565" height="7.01086957"></rect>
                                <rect id="Rectangle-14-Copy-6" stroke="none" fill="#D2D2D2" fill-rule="evenodd" mask="url(#mask-6)" x="-37.1576087" y="75.7173913" width="217.397565" height="7.01086957"></rect>
                            </g>
                        </g>
                    </g>
                    <g id="Sattelite" filter="url(#filter-7)" transform="translate(147.996735, 133.996735) rotate(-315.000000) translate(-147.996735, -133.996735) translate(38.996735, 53.496735)">
                        <ellipse id="Oval-98" fill="#00BB8A" cx="108.715075" cy="6.35913703" rx="6.34744744" ry="6.35913703"></ellipse>
                        <g id="Rectangle-13" transform="translate(82.000000, 5.000000)">
                            <mask id="mask-9" fill="white">
                                <use xlink:href="#path-8"></use>
                            </mask>
                            <use id="Mask" fill="#D7D7D7" xlink:href="#path-8"></use>
                            <rect fill="#CACACA" mask="url(#mask-9)" x="26" y="-21" width="30" height="56"></rect>
                        </g>
                        <rect id="Rectangle-168" fill="#D7D7D7" x="69.3609008" y="89.0279184" width="77.4388587" height="5.08730962"></rect>
                        <g id="Rectangle-11" transform="translate(83.000000, 31.000000)">
                            <mask id="mask-11" fill="white">
                                <use xlink:href="#path-10"></use>
                            </mask>
                            <use id="Mask" fill="#F7F7F7" xlink:href="#path-10"></use>
                            <rect fill="#FFFFFF" mask="url(#mask-11)" x="24.4132124" y="-6.67072491" width="136" height="142.900235"></rect>
                        </g>
                        <rect id="Rectangle-102" fill="#6A5AFF" x="83.3252851" y="115.736294" width="50.7795795" height="15.2619289"></rect>
                        <rect id="Rectangle-102-Copy-2" fill="#5B4CDF" x="83.3252851" y="115.736294" width="25.6747149" height="15.2619289"></rect>
                        <g id="Rectangle-164-+-Rectangle-164-+-Line" transform="translate(143.121320, 71.874763)">
                            <g id="Rectangle-164">
                                <use fill="#C4C4C4" fill-rule="evenodd" xlink:href="#path-12"></use>
                                <rect stroke="#FFFFFF" stroke-width="3" x="37.0457056" y="1.5" width="35.0846846" height="35.1548222"></rect>
                            </g>
                            <g id="Rectangle-164">
                                <use fill="#D7D7D7" fill-rule="evenodd" xlink:href="#path-13"></use>
                                <rect stroke="#FFFFFF" stroke-width="3" x="1.5" y="1.5" width="35.0846846" height="35.1548222"></rect>
                            </g>
                            <path d="M1.90423423,24.1647207 L71.8645076,24.1647207" id="Line" stroke="#FFFFFF" stroke-width="3" stroke-linecap="square"></path>
                            <path d="M1.90423423,12.7182741 L71.8645076,12.7182741" id="Line" stroke="#FFFFFF" stroke-width="3" stroke-linecap="square"></path>
                        </g>
                        <rect id="Rectangle-102" fill="#00BB8A" x="83.3252851" y="90.2997458" width="50.7795795" height="15.2619289"></rect>
                        <rect id="Rectangle-102-Copy" fill="#03AB7F" x="83.3252851" y="90.2997458" width="25.6747149" height="15.2619289"></rect>
                        <g id="Group-+-Group-Copy-2" transform="translate(88.672733, 82.969795)" fill="#6F7982">
                            <ellipse id="Oval-5" cx="22.5649559" cy="1.8131443" rx="1.26948949" ry="1.27182741"></ellipse>
                            <path d="M27.6522655,3.0849717 C28.3533852,3.0849717 28.921755,2.51555518 28.921755,1.8131443 C28.921755,1.11073342 28.3533852,0.541316893 27.6522655,0.541316893 C26.9511458,0.541316893 26.382776,1.11073342 26.382776,1.8131443 C26.382776,2.51555518 26.9511458,3.0849717 27.6522655,3.0849717 Z" id="Oval-5-Copy-3"></path>
                            <ellipse id="Oval-5-Copy-4" cx="32.7395751" cy="1.8131443" rx="1.26948949" ry="1.27182741"></ellipse>
                            <ellipse id="Oval-5-Copy-5" cx="37.8268847" cy="1.8131443" rx="1.26948949" ry="1.27182741"></ellipse>
                            <ellipse id="Oval-5" cx="2.25312406" cy="1.8131443" rx="1.26948949" ry="1.27182741"></ellipse>
                            <path d="M7.34043368,3.0849717 C8.04155337,3.0849717 8.60992317,2.51555518 8.60992317,1.8131443 C8.60992317,1.11073342 8.04155337,0.541316893 7.34043368,0.541316893 C6.639314,0.541316893 6.0709442,1.11073342 6.0709442,1.8131443 C6.0709442,2.51555518 6.639314,3.0849717 7.34043368,3.0849717 Z" id="Oval-5-Copy-3"></path>
                            <ellipse id="Oval-5-Copy-4" cx="12.4277433" cy="1.8131443" rx="1.26948949" ry="1.27182741"></ellipse>
                            <ellipse id="Oval-5-Copy-5" cx="17.5150529" cy="1.8131443" rx="1.26948949" ry="1.27182741"></ellipse>
                        </g>
                        <path d="M108.715075,150.075634 C98.8765315,150.075634 98.559159,160.250253 98.559159,160.250253 C98.559159,160.250253 102.788745,160.250253 108.397703,160.250253 C114.00666,160.250253 118.617093,160.250253 118.870991,160.250253 C119.124889,160.250253 118.553618,150.075634 108.715075,150.075634 L108.715075,150.075634 Z" id="Oval-97" fill="#F7F7F7"></path>
                        <g id="Rectangle-164-+-Rectangle-164-+-Line" transform="translate(0.000000, 72.132597)">
                            <g id="Rectangle-164">
                                <use fill="#D7D7D7" fill-rule="evenodd" xlink:href="#path-14"></use>
                                <rect stroke="#FFFFFF" stroke-width="3" x="37.0457056" y="1.5" width="35.0846846" height="35.1548222"></rect>
                            </g>
                            <g id="Rectangle-164">
                                <use fill="#C5C5C5" fill-rule="evenodd" xlink:href="#path-15"></use>
                                <rect stroke="#FFFFFF" stroke-width="3" x="1.5" y="1.5" width="35.0846846" height="35.1548222"></rect>
                            </g>
                            <path d="M1.90423423,24.1647207 L71.8645076,24.1647207" id="Line" stroke="#FFFFFF" stroke-width="3" stroke-linecap="square"></path>
                            <path d="M1.90423423,12.7182741 L71.8645076,12.7182741" id="Line" stroke="#FFFFFF" stroke-width="3" stroke-linecap="square"></path>
                        </g>
                    </g>
                </g>
            </g>
        </g>
    </g>
</svg>