<?xml version="1.0" encoding="UTF-8"?>
<svg width="411px" height="223px" viewBox="0 0 411 223" version="1.1" xmlns="http://www.w3.org/2000/svg" xmlns:xlink="http://www.w3.org/1999/xlink">
    <!-- Generator: Sketch 44.1 (41455) - http://www.bohemiancoding.com/sketch -->
    <title>Elements</title>
    <desc>Created with Sketch.</desc>
    <defs></defs>
    <g id="Page-1" stroke="none" stroke-width="1" fill="none" fill-rule="evenodd">
        <g id="help_main@2x" transform="translate(-225.000000, -398.000000)" fill="#F7F7F7">
            <g id="Before" transform="translate(151.000000, 370.000000)">
                <g id="Elements" transform="translate(74.000000, 28.000000)">
                    <path d="M10,71.3986368 L9.83279819,71.3884603 C7.15138542,71.0990202 5.82875491,69.4790552 5.64752051,67.266247 L5.62540136,67 L0,67 L0.01165418,67.3015099 C0.221905102,72.5781701 3.99690807,76.6274909 9.82447378,76.9924268 L10,77 L10,71.3986368 Z" id="Fill-40"></path>
                    <path d="M36.5086367,109.02415 C36.5086367,109.02415 36.1876637,109.007004 36,109 L36,114.715904 C36.0238973,114.715904 36.2263211,114.72653 36.2263211,114.72653 C39.1771634,114.937604 41.3642308,117.09254 41.4577112,120 L47,120 C46.9072224,114.042109 42.6204767,109.376745 36.5086367,109.02415" id="Fill-42"></path>
                    <path d="M83.5172305,14 C81.0216777,14 78.661691,14.9958506 76.8733061,16.8046355 C75.0872871,18.6097375 74.0687665,21.0203049 74.0070165,23.5946377 L74.000392,23.8656977 C73.9999188,23.9121019 73.9999188,23.9575241 74.0001554,24 L79.5957489,24 C79.5945659,23.9641533 79.5940927,23.9292887 79.5940927,23.8944241 L79.5940927,23.8057895 C79.6116004,21.5700361 81.3713579,19.7514302 83.5172305,19.7514302 C85.6903109,19.7514302 87.4588223,21.5869773 87.4588223,23.8433549 L87.4588223,24 L93,24 L93,23.8411451 C93,18.4145449 88.7456361,14 83.5172305,14" id="Fill-44"></path>
                    <path d="M363.605556,83.9993075 L363.605556,84 C363.605556,80.4750014 366.474133,77.6049093 370,77.6049093 L370,72 C363.38392,72 358.001385,77.3830675 358,83.9993075 L363.605556,83.9993075 Z" id="Fill-48"></path>
                    <polygon id="Fill-50" points="134 125 140 125 140 91 134 91"></polygon>
                    <polygon id="Fill-52" points="328 23 334 23 334 0 328 0"></polygon>
                    <path d="M203.500721,150.160126 C199.827985,150.160126 196.839874,147.169851 196.839874,143.497836 C196.839874,139.8251 199.827985,136.838912 203.500721,136.838912 C207.173458,136.838912 210.161088,139.8251 210.161088,143.497836 L210.161088,143.50024 L216,143.50024 L216,143.497836 C216,136.607337 210.393625,131 203.500721,131 C196.60854,131 191,136.607337 191,143.497836 C191,150.390739 196.60854,156 203.500721,156 L203.500721,150.160126 Z" id="Fill-53"></path>
                    <path d="M264.394321,108.002539 L264.394321,108 C264.394321,111.524755 261.52603,114.394691 258,114.394691 L258,120 C264.616646,120 269.998384,114.616042 270,108.002539 L264.394321,108.002539 Z" id="Fill-54"></path>
                    <path d="M369.998615,191.144066 L370,191.144066 C366.186519,191 363.606879,189.399107 363.606879,185 L358,185 C358,192.284362 362.536011,197 369.998615,197 L369.998615,191.144066 Z" id="Fill-55"></path>
                    <path d="M270,203.839025 L270.001847,203.839025 C273.526343,203.839025 276.395753,206.829598 276.395753,210.500962 C276.395753,214.172807 273.526343,217.162178 270.001847,217.162178 L270,217.162178 L270,223 L270.001847,223 C276.766922,223 282,217.392795 282,210.500962 C282,203.607205 276.618962,198 270.001847,198 L270,198 L270,203.839025 Z" id="Fill-56"></path>
                    <path d="M31.0016632,174 C24.9377281,174 20.0040391,179.654469 20.0040391,185.76781 L20,185.266787 L20,187.427508 L25.7714539,187.427508 L25.7714539,185.266787 L25.7735922,185.266787 C25.7735922,182.360519 28.1186686,179.996228 31.0016632,179.996228 C33.8853705,179.996228 36.2294965,182.360519 36.2294965,185.266787 L36.2294965,198 L42,198 L42,185.266787 C42,178.524773 37.3207767,174 31.0016632,174" id="Fill-57"></path>
                    <path d="M411,107.839025 L410.998618,107.839025 C407.175661,107.839025 404.445472,110.611245 404.445472,114.500962 C404.445472,118.355569 407.210681,121.162178 410.998618,121.162178 L411,121.162178 L411,127 L410.998618,127 C404.394785,127 398.977721,121.304781 399.000069,114.765968 C399.023569,107.872451 404.394785,102 410.998618,102 L411,102 L411,107.839025 Z" id="Fill-59"></path>
                </g>
            </g>
        </g>
    </g>
</svg>