<?xml version="1.0" encoding="UTF-8"?>
<svg width="103px" height="30px" viewBox="0 0 103 30" version="1.1" xmlns="http://www.w3.org/2000/svg" xmlns:xlink="http://www.w3.org/1999/xlink">
    <!-- Generator: Sketch 44.1 (41455) - http://www.bohemiancoding.com/sketch -->
    <title>Logo</title>
    <desc>Created with Sketch.</desc>
    <defs></defs>
    <g id="Symbols" stroke="none" stroke-width="1" fill="none" fill-rule="evenodd">
        <g id="Menu-/-Normal" transform="translate(-150.000000, -30.000000)">
            <g id="Logo">
                <g transform="translate(150.000000, 30.000000)">
                    <path d="M8.12709238,9.81784615 C12.3922733,10.0586703 15.3838511,13.242956 15.448267,17.3094396 L15.4477765,17.3094396 C15.4477765,17.3114176 15.448267,17.3130659 15.448267,17.3157033 L15.4477765,17.651967 C15.385486,21.8005385 12.0213098,25.1562527 7.89248127,25.1562527 L7.89035587,25.1562527 L7.89035587,25.1570769 L7.65787016,25.1570769 L7.65787016,25.1562527 C3.48980349,25.1555934 0.10012254,21.7375714 0.10012254,17.5357582 L0.10012254,17.3161978 L0.317403492,17.3157033 L3.96458444,17.3157033 L3.96458444,17.5357582 C3.96458444,19.5889451 5.62108603,21.2593846 7.65787016,21.2608681 L7.89035587,21.2608681 L7.89035587,21.260044 C7.8918273,21.260044 7.8918273,21.2608681 7.89248127,21.2608681 C9.9292654,21.2608681 11.5865844,19.5900989 11.5865844,17.5357582 L11.5865844,17.4272967 C11.5865844,17.3883956 11.5821702,17.3488352 11.5810257,17.3094396 C11.5156289,15.3251538 9.98943048,13.8541648 7.92992095,13.7097692 C7.92992095,13.7097692 7.7888273,13.7026813 7.7723146,13.7026813 L7.65149397,13.6972418 C3.64577492,13.4433956 1.0505019,10.6227363 0.906138413,6.9479011 L0.898127302,6.73773626 L0.901560635,6.73773626 C0.901560635,6.70954945 0.901560635,6.67889011 0.901887619,6.64773626 L0.906138413,6.46559341 C0.948809841,4.7372967 1.65297016,3.11927473 2.88684476,1.90740659 C4.12284476,0.692736264 5.7535146,0.0243296703 7.47835587,0.0243296703 C11.091367,0.0243296703 14.0309543,2.9879011 14.0309543,6.63125275 L14.0309543,6.73773626 L10.2021337,6.73773626 L10.2021337,6.63224176 C10.2021337,5.1179011 8.98019397,3.88575824 7.47835587,3.88575824 C5.99515587,3.88575824 4.7792654,5.1061978 4.76716698,6.60784615 L4.76716698,6.66702198 C4.76716698,6.69042857 4.76765746,6.71367033 4.76847492,6.73773626 L4.76520508,6.73773626 L4.78008286,6.92317582 C4.90450032,8.46421978 5.81417016,9.59284615 7.65737968,9.79443956 L7.7723146,9.80152747 C7.90359873,9.80597802 8.12709238,9.81784615 8.12709238,9.81784615 Z" id="Fill-152" fill="#FF4C6B"></path>
                    <path d="M94.4183506,21.2017747 C91.9214998,21.2017747 89.890111,19.1543571 89.890111,16.6365 C89.890111,14.1196319 91.9214998,12.0702363 94.4183506,12.0702363 C96.9168363,12.0702363 98.9472443,14.1196319 98.9472443,16.6365 C98.9472443,19.1543571 96.9168363,21.2017747 94.4183506,21.2017747 M94.4183506,8.06803846 C89.7329951,8.06803846 85.9218316,11.9121593 85.9205237,16.6363352 L85.9205237,16.6365 C85.9205237,21.3606758 89.7326681,25.2043022 94.4183506,25.2043022 C99.1051776,25.2043022 102.917813,21.3606758 102.917813,16.6365 C102.917813,11.9121593 99.1051776,8.06803846 94.4183506,8.06803846" id="Fill-154" fill="#FF4C6B"></path>
                    <path d="M65.395076,21.1843846 L65.394749,21.1843846 C62.7841078,21.1843846 60.8586617,19.370044 60.749776,16.8447692 L60.749449,16.4011978 C60.8517951,13.8498791 62.7564776,12.0518571 65.394749,12.0518571 L65.395076,12.0518571 C67.8915998,12.0518571 69.9239697,14.1022418 69.9239697,16.6182857 C69.9239697,19.1353187 67.8915998,21.1843846 65.395076,21.1843846 M65.3958935,8.04982418 L65.3958935,8.04982418 L65.395076,8.04982418 L65.394749,8.04982418 L65.3937681,8.04982418 C63.6787363,8.04998901 62.0820729,8.59114286 60.7445443,9.50647253 L60.7445443,8.11345055 L56.8807363,8.11345055 L56.8807363,29.9574066 L60.8838395,29.9574066 L60.8838395,23.873011 C62.1945554,24.6983407 63.7411903,25.1855934 65.3937681,25.1857582 L65.394749,25.1857582 L65.395076,25.1857582 L65.3958935,25.1857582 C70.1873554,25.1854286 73.8930665,21.3421319 73.8930665,16.6182857 C73.8930665,11.8934505 70.08223,8.05031868 65.3958935,8.04982418" id="Fill-156" fill="#FF4C6B"></path>
                    <path d="M45.284277,21.2011319 C42.7872627,21.2011319 40.7558738,19.1514066 40.7558738,16.6347033 C40.7558738,14.117011 42.7872627,12.0700879 45.284277,12.0700879 C47.7812913,12.0700879 49.8126802,14.117011 49.8126802,16.6347033 C49.8126802,19.1514066 47.7812913,21.2011319 45.284277,21.2011319 M45.2502706,8.0673956 C40.5644246,8.0673956 36.7511357,11.9111868 36.7511357,16.6347033 C36.7511357,21.3595385 40.5644246,25.2043187 45.2502706,25.2043187 C49.9361167,25.2043187 53.7474437,21.3595385 53.7482611,16.6363516 L53.7482611,16.6347033 C53.7482611,11.9111868 49.9369341,8.0673956 45.2502706,8.0673956" id="Fill-158" fill="#FF4C6B"></path>
                    <path d="M26.1186583,8.06742857 C24.8169344,8.06742857 23.590744,8.44638462 22.519871,9.09550549 L22.519871,0.483032967 L18.5455424,0.483032967 L18.5455424,24.5860549 L22.519871,24.5860549 L22.519871,17.3094066 L22.519871,15.8220989 L22.5213424,15.8220989 C22.5213424,13.8214945 24.1348456,12.1949011 26.1186583,12.1949011 C28.1027979,12.1949011 29.7159741,13.8214945 29.7159741,15.8220989 L29.7159741,24.5860549 L33.6867059,24.5860549 L33.6867059,15.8220989 C33.6867059,11.1818242 30.4667297,8.06742857 26.1186583,8.06742857" id="Fill-160" fill="#FF4C6B"></path>
                    <path d="M84.752471,20.9794121 C82.2870106,20.7756758 80.6757963,19.593478 80.6757963,16.6182033 L80.6757963,0.483148352 L76.6726932,0.483148352 L76.6726932,16.6182033 C76.6726932,21.679467 79.7180598,24.9992473 84.752471,25.1739725 L84.752471,20.9794121 Z" id="Fill-162" fill="#FF4C6B"></path>
                    <path d="M8.12709238,9.81301648 C8.12709238,9.81301648 7.90359873,9.80114835 7.7723146,9.79636813 L7.7723146,13.6976868 C7.7888273,13.6976868 7.92992095,13.7049396 7.92992095,13.7049396 C9.98943048,13.8490055 11.5156289,15.3199945 11.5810257,17.3046099 L15.448267,17.3046099 C15.3838511,13.2379615 12.3922733,10.0538407 8.12709238,9.81301648" id="Fill-164" fill="#FF4C6B"></path>
                    <path d="M7.47838857,0.0193186813 C5.7535473,0.0193186813 4.12287746,0.687725275 2.88687746,1.9023956 C1.65300286,3.11426374 0.94884254,4.73245055 0.906171111,6.46041758 L0.901920317,6.64289011 C0.901429841,6.67404396 0.901429841,6.70453846 0.901429841,6.73289011 L4.76850762,6.73289011 C4.76752667,6.70882418 4.76719968,6.68541758 4.76719968,6.66201099 L4.76719968,6.60283516 C4.7792981,5.10135165 5.99518857,3.88074725 7.47838857,3.88074725 C8.98022667,3.88074725 10.2021663,5.11289011 10.2021663,6.6273956 L10.2021663,6.73289011 L14.030987,6.73289011 L14.030987,6.62640659 C14.030987,2.98289011 11.0913997,0.0193186813 7.47838857,0.0193186813" id="Fill-166" fill="#FF4C6B"></path>
                    <path d="M94.4183506,12.0653242 C96.9168363,12.0653242 98.9472443,14.1148846 98.9472443,16.6317527 C98.9472443,19.1494451 96.9168363,21.1966978 94.4183506,21.1966978 C91.9214998,21.1966978 89.890111,19.1494451 89.890111,16.6317527 L89.890111,16.6314231 L85.9205237,16.6314231 L85.9205237,16.6317527 C85.9205237,21.3554341 89.7326681,25.1993901 94.4183506,25.1993901 C99.1051776,25.1993901 102.917813,21.3554341 102.917813,16.6317527 C102.917813,11.9070824 99.1051776,8.06329121 94.4183506,8.06329121 L94.4183506,12.0653242 Z" id="Fill-168" fill="#FF4C6B"></path>
                    <polygon id="Fill-170" fill="#FF4C6B" points="18.5455587 24.581044 22.5198873 24.581044 22.5198873 0.478021978 18.5455587 0.478021978"></polygon>
                    <path d="M49.7785757,16.631456 L49.7785757,16.6298077 C49.7785757,19.146511 47.7471868,21.1960714 45.2501725,21.1960714 L45.2501725,25.1992582 C49.9360186,25.1992582 53.7473456,21.3546429 53.748163,16.631456 L49.7785757,16.631456 Z" id="Fill-172" fill="#FF4C6B"></path>
                    <path d="M65.3939316,12.046978 L65.395076,12.046978 C67.8915998,12.046978 69.9239697,14.0971978 69.9239697,16.6132418 C69.9239697,19.1302747 67.8915998,21.1793407 65.395076,21.1793407 L65.3939316,21.1793407 L65.3939316,25.181044 L65.395076,25.181044 C70.1868649,25.181044 73.8930665,21.3374176 73.8930665,16.6132418 C73.8930665,11.8882418 70.081903,8.04494505 65.395076,8.04494505 L65.3939316,8.04494505 L65.3939316,12.046978 Z" id="Fill-173" fill="#FF4C6B"></path>
                    <polygon id="Fill-174" fill="#FF4C6B" points="60.744626 8.10863736 56.8808181 8.10863736 56.8808181 29.9524286 60.8839213 29.9524286 60.8839213 23.318967 60.7544356 23.1116044 60.744626 9.59545055"></polygon>
                    <path d="M15.4478419,17.3046429 L11.5810911,17.3046429 C11.5820721,17.3437088 11.5864863,17.3832692 11.5864863,17.4225 L11.5864863,17.5309615 C11.5864863,19.5851374 9.92933079,21.2559066 7.89254667,21.2559066 C7.8918927,21.2559066 7.8918927,21.2550824 7.89042127,21.2550824 L7.89042127,21.2559066 L7.65777206,21.2559066 C5.62115143,21.2545879 3.96464984,19.5839835 3.96464984,17.5309615 L3.96464984,17.3107418 L0.317468889,17.3107418 L0.100187937,17.3112363 L0.100187937,17.5309615 C0.100187937,21.7326099 3.48986889,25.1507967 7.65777206,25.1512912 L7.65777206,25.1519505 L7.89042127,25.1519505 L7.89042127,25.1512912 L7.89254667,25.1512912 C12.0213752,25.1512912 15.3853879,21.7957418 15.4478419,17.6471703 L15.4483324,17.3107418 C15.4483324,17.3081044 15.4478419,17.306456 15.4478419,17.3046429" id="Fill-175" fill="#6A5AFF"></path>
                    <path d="M7.7723146,9.79643407 L7.65737968,9.78934615 C5.81400667,9.58791758 4.90450032,8.45929121 4.78024635,6.91841209 L4.76504159,6.73297253 L0.898127302,6.73297253 L0.906138413,6.94280769 C1.0505019,10.6178077 3.64577492,13.438467 7.65149397,13.6923132 L7.7723146,13.6977527 L7.7723146,9.79643407 Z" id="Fill-176" fill="#6A5AFF"></path>
                    <path d="M89.8900456,16.631456 L89.8900456,16.6317857 C89.8900456,14.1147527 91.9214344,12.0653571 94.4182852,12.0653571 L94.4182852,8.06315934 C89.7330932,8.06315934 85.9217662,11.9071154 85.9204583,16.631456 L89.8900456,16.631456 Z" id="Fill-177" fill="#6A5AFF"></path>
                    <path d="M45.2502216,21.1961374 C42.7532073,21.1961374 40.7218184,19.1464121 40.7218184,16.6298736 C40.7218184,14.1121813 42.7532073,12.0652582 45.2502216,12.0652582 C47.7472359,12.0652582 49.7786248,14.1121813 49.7786248,16.6298736 L49.7786248,16.631522 L53.7482121,16.631522 L53.7482121,16.6298736 C53.7482121,11.9063571 49.9370486,8.0624011 45.2502216,8.0624011 C40.5643756,8.0624011 36.7512502,11.9063571 36.7512502,16.6298736 C36.7512502,21.3547088 40.5643756,25.1993242 45.2502216,25.1993242 L45.2502216,21.1961374 Z" id="Fill-178" fill="#6A5AFF"></path>
                    <path d="M26.1186583,8.06243407 C21.9460138,8.06243407 18.5509376,11.9543571 18.5509376,16.1621044 L18.5484852,15.8172692 L18.5484852,17.3045769 L22.519871,17.3045769 L22.519871,15.8172692 L22.5213424,15.8172692 C22.5213424,13.8166648 24.1348456,12.1899066 26.1186583,12.1899066 C28.1027979,12.1899066 29.7159741,13.8166648 29.7159741,15.8172692 L29.7159741,24.5810604 L33.6867059,24.5810604 L33.6867059,15.8172692 C33.6867059,11.1768297 30.4667297,8.06243407 26.1186583,8.06243407" id="Fill-179" fill="#6A5AFF"></path>
                    <path d="M65.3960079,12.046978 L65.3947,12.046978 C62.6822032,12.046978 60.7446587,13.9473626 60.7446587,16.6132418 C60.7446587,19.2557143 62.706727,21.1793407 65.3947,21.1793407 L65.3960079,21.1793407 L65.3960079,25.181044 L65.3947,25.181044 C60.7086905,25.181044 56.8648286,21.2769231 56.8808508,16.7953846 C56.8972,12.0700549 60.7086905,8.04494505 65.3947,8.04494505 L65.3960079,8.04494505 L65.3960079,12.046978 Z" id="Fill-180" fill="#6A5AFF"></path>
                    <path d="M84.7524383,20.9743187 C82.2869779,20.7707473 80.6757637,19.5887143 80.6757637,16.6132747 L76.672824,16.6132747 C76.672824,21.6751978 79.7167192,24.9987692 84.7524383,25.1726703 L84.7524383,20.9743187 Z" id="Fill-181" fill="#6A5AFF"></path>
                </g>
            </g>
        </g>
    </g>
</svg>