<?xml version="1.0" encoding="UTF-8"?>
<svg width="921px" height="142px" viewBox="0 0 921 142" version="1.1" xmlns="http://www.w3.org/2000/svg" xmlns:xlink="http://www.w3.org/1999/xlink">
    <!-- Generator: Sketch 44.1 (41455) - http://www.bohemiancoding.com/sketch -->
    <title>Elements</title>
    <desc>Created with Sketch.</desc>
    <defs></defs>
    <g id="Page-1" stroke="none" stroke-width="1" fill="none" fill-rule="evenodd">
        <g id="article@2x" transform="translate(-260.000000, -90.000000)" fill="#D7D7D7">
            <g id="Search-/-Filters" transform="translate(0.000000, 90.000000)">
                <g id="Elements" transform="translate(720.500000, 71.000000) scale(-1, -1) translate(-720.500000, -71.000000) translate(260.000000, 0.000000)">
                    <path d="M605,45.4646028 L604.893821,45.4581227 C603.191026,45.2738156 602.351107,44.2422684 602.236017,42.8332156 L602.22197,42.6636771 L598.649635,42.6636771 L598.657036,42.85567 C598.790553,46.2156958 601.187818,48.794187 604.888534,49.0265677 L605,49.0313901 L605,45.4646028 Z" id="Fill-40"></path>
                    <path d="M659.337601,69.42345 C659.337601,69.42345 659.133772,69.4125314 659.014599,69.4080717 L659.014599,73.0477954 C659.029774,73.0477954 659.158321,73.0545619 659.158321,73.0545619 C661.032213,73.1889678 662.421081,74.5611688 662.480444,76.4125561 L666,76.4125561 C665.941083,72.6187423 663.218843,69.6479724 659.337601,69.42345" id="Fill-42"></path>
                    <path d="M692.978095,8.91479821 C691.393328,8.91479821 689.89465,9.5489273 688.758961,10.7007096 C687.624774,11.8501468 686.977976,13.3851269 686.938762,15.0243881 L686.934556,15.1969913 C686.934255,15.2265403 686.934255,15.2554638 686.934405,15.2825112 L690.487811,15.2825112 C690.48706,15.2596851 690.48676,15.2374843 690.48676,15.2152835 L690.48676,15.1588435 C690.497878,13.7351799 691.615388,12.5771439 692.978095,12.5771439 C694.358081,12.5771439 695.48115,13.7459676 695.48115,15.1827641 L695.48115,15.2825112 L699,15.2825112 L699,15.181357 C699,11.7258537 696.298324,8.91479821 692.978095,8.91479821" id="Fill-44"></path>
                    <path d="M888.939295,53.4883483 L888.939295,53.4887892 C888.939295,51.2441713 890.760946,49.416579 893,49.416579 L893,45.8475336 C888.798548,45.8475336 885.380442,49.2753166 885.379562,53.4883483 L888.939295,53.4883483 Z" id="Fill-48"></path>
                    <polygon id="Fill-50" points="718.189781 79.5964126 722 79.5964126 722 57.9461883 718.189781 57.9461883"></polygon>
                    <polygon id="Fill-52" points="834.189781 14.6457399 838 14.6457399 838 0 834.189781 0"></polygon>
                    <path d="M750.062502,95.6176586 C747.73018,95.6176586 745.832621,93.7135371 745.832621,91.3753035 C745.832621,89.0366105 747.73018,87.1350921 750.062502,87.1350921 C752.394823,87.1350921 754.292078,89.0366105 754.292078,91.3753035 L754.292078,91.3768347 L758,91.3768347 L758,91.3753035 C758,86.9876318 754.439747,83.4170404 750.062502,83.4170404 C745.685715,83.4170404 742.124088,86.9876318 742.124088,91.3753035 C742.124088,95.7645064 745.685715,99.3363229 750.062502,99.3363229 L750.062502,95.6176586 Z" id="Fill-53"></path>
                    <path d="M782.440189,68.7729172 L782.440189,68.7713004 C782.440189,71.0157631 780.61872,72.8432563 778.379562,72.8432563 L778.379562,76.4125561 C782.581373,76.4125561 785.998974,72.9842058 786,68.7729172 L782.440189,68.7729172 Z" id="Fill-54"></path>
                    <path d="M865.99912,121.715056 L866,121.715056 C863.5783,121.623318 861.940135,120.603916 861.940135,117.802691 L858.379562,117.802691 C858.379562,122.441163 861.260095,125.443946 865.99912,125.443946 L865.99912,121.715056 Z" id="Fill-55"></path>
                    <path d="M806.379562,129.798841 L806.380735,129.798841 C808.618919,129.798841 810.441098,131.703152 810.441098,134.040971 C810.441098,136.379097 808.618919,138.282642 806.380735,138.282642 L806.379562,138.282642 L806.379562,142 L806.380735,142 C810.676805,142 814,138.429493 814,134.040971 C814,129.651225 810.582845,126.080717 806.380735,126.080717 L806.379562,126.080717 L806.379562,129.798841 Z" id="Fill-56"></path>
                    <path d="M632.015655,110.798206 C628.164835,110.798206 625.031762,114.39881 625.031762,118.29161 L625.029197,117.972573 L625.029197,119.348458 L628.694281,119.348458 L628.694281,117.972573 L628.695639,117.972573 C628.695639,116.121945 630.184848,114.616432 632.015655,114.616432 C633.846914,114.616432 635.33552,116.121945 635.33552,117.972573 L635.33552,126.080717 L639,126.080717 L639,117.972573 C639,113.679452 636.028522,110.798206 632.015655,110.798206" id="Fill-57"></path>
                    <path d="M921,68.6687959 L920.999122,68.6687959 C918.571405,68.6687959 916.837635,70.4340661 916.837635,72.9109264 C916.837635,75.3654299 918.593644,77.1525975 920.999122,77.1525975 L921,77.1525975 L921,80.8699552 L920.999122,80.8699552 C916.805447,80.8699552 913.365414,77.2434029 913.379606,73.0796745 C913.394529,68.6900809 916.805447,64.9506726 920.999122,64.9506726 L921,64.9506726 L921,68.6687959 Z" id="Fill-59"></path>
                    <path d="M204.939295,53.6408146 L204.939295,53.6412556 C204.939295,51.3966377 206.760946,49.5690454 209,49.5690454 L209,46 C204.798548,46 201.380442,49.4277829 201.379562,53.6408146 L204.939295,53.6408146 Z" id="Fill-48-Copy-2"></path>
                    <polygon id="Fill-50-Copy-2" points="34.189781 79.6502242 38 79.6502242 38 58 34.189781 58"></polygon>
                    <polygon id="Fill-52-Copy-2" points="149.189781 14.6457399 153 14.6457399 153 0 149.189781 0"></polygon>
                    <path d="M66.0625019,95.2006182 C63.7301804,95.2006182 61.8326208,93.2964967 61.8326208,90.9582631 C61.8326208,88.6195701 63.7301804,86.7180518 66.0625019,86.7180518 C68.3948234,86.7180518 70.2920776,88.6195701 70.2920776,90.9582631 L70.2920776,90.9597944 L74,90.9597944 L74,90.9582631 C74,86.5705915 70.439747,83 66.0625019,83 C61.685715,83 58.1240876,86.5705915 58.1240876,90.9582631 C58.1240876,95.347466 61.685715,98.9192825 66.0625019,98.9192825 L66.0625019,95.2006182 Z" id="Fill-53-Copy-2"></path>
                    <path d="M98.440189,69.0016167 L98.440189,69 C98.440189,71.2444627 96.6187199,73.0719559 94.379562,73.0719559 L94.379562,76.6412556 C98.5813734,76.6412556 101.998974,73.2129054 102,69.0016167 L98.440189,69.0016167 Z" id="Fill-54-Copy-2"></path>
                    <path d="M180.99912,121.912365 L181,121.912365 C178.5783,121.820628 176.940135,120.801225 176.940135,118 L173.379562,118 C173.379562,122.638473 176.260095,125.641256 180.99912,125.641256 L180.99912,121.912365 Z" id="Fill-55-Copy-2"></path>
                    <path d="M121.379562,129.718123 L121.380735,129.718123 C123.618919,129.718123 125.441098,131.622435 125.441098,133.960254 C125.441098,136.298379 123.618919,138.201925 121.380735,138.201925 L121.379562,138.201925 L121.379562,141.919283 L121.380735,141.919283 C125.676805,141.919283 129,138.348775 129,133.960254 C129,129.570507 125.582845,126 121.380735,126 L121.379562,126 L121.379562,129.718123 Z" id="Fill-56-Copy-2"></path>
                    <path d="M7.01565472,111 C3.16483466,111 0.0317620807,114.600604 0.0317620807,118.493404 L0.0291970803,118.174367 L0.0291970803,119.550252 L3.69428093,119.550252 L3.69428093,118.174367 L3.69563887,118.174367 C3.69563887,116.323739 5.18484794,114.818226 7.01565472,114.818226 C8.84691414,114.818226 10.3355197,116.323739 10.3355197,118.174367 L10.3355197,126.282511 L14,126.282511 L14,118.174367 C14,113.881245 11.0285224,111 7.01565472,111" id="Fill-57-Copy-2"></path>
                    <path d="M236,68.7181233 L235.999122,68.7181233 C233.571405,68.7181233 231.837635,70.4833935 231.837635,72.9602538 C231.837635,75.4147572 233.593644,77.2019249 235.999122,77.2019249 L236,77.2019249 L236,80.9192825 L235.999122,80.9192825 C231.805447,80.9192825 228.365414,77.2927303 228.379606,73.1290018 C228.394529,68.7394082 231.805447,65 235.999122,65 L236,65 L236,68.7181233 Z" id="Fill-59-Copy-2"></path>
                    <path d="M263,45.8009257 L262.893821,45.7944455 C261.191026,45.6101384 260.351107,44.5785912 260.236017,43.1695384 L260.22197,43 L256.649635,43 L256.657036,43.1919929 C256.790553,46.5520186 259.187818,49.1305099 262.888534,49.3628906 L263,49.367713 L263,45.8009257 Z" id="Fill-40-Copy" transform="translate(259.824818, 46.183857) scale(-1, 1) translate(-259.824818, -46.183857) "></path>
                    <path d="M317.337601,69.0153782 C317.337601,69.0153782 317.133772,69.0044597 317.014599,69 L317.014599,72.6397237 C317.029774,72.6397237 317.158321,72.6464901 317.158321,72.6464901 C319.032213,72.780896 320.421081,74.1530971 320.480444,76.0044843 L324,76.0044843 C323.941083,72.2106706 321.218843,69.2399007 317.337601,69.0153782" id="Fill-42-Copy" transform="translate(320.507299, 72.502242) scale(-1, 1) translate(-320.507299, -72.502242) "></path>
                    <path d="M349.978095,9 C348.393328,9 346.89465,9.6341291 345.758961,10.7859114 C344.624774,11.9353486 343.977976,13.4703287 343.938762,15.1095899 L343.934556,15.2821931 C343.934255,15.311742 343.934255,15.3406656 343.934405,15.367713 L347.487811,15.367713 C347.48706,15.3448869 347.48676,15.3226861 347.48676,15.3004853 L347.48676,15.2440453 C347.497878,13.8203817 348.615388,12.6623457 349.978095,12.6623457 C351.358081,12.6623457 352.48115,13.8311694 352.48115,15.2679659 L352.48115,15.367713 L356,15.367713 L356,15.2665588 C356,11.8110555 353.298324,9 349.978095,9" id="Fill-44-Copy" transform="translate(349.967153, 12.183857) scale(-1, 1) translate(-349.967153, -12.183857) "></path>
                    <path d="M546.939295,53.6408146 L546.939295,53.6412556 C546.939295,51.3966377 548.760946,49.5690454 551,49.5690454 L551,46 C546.798548,46 543.380442,49.4277829 543.379562,53.6408146 L546.939295,53.6408146 Z" id="Fill-48-Copy" transform="translate(547.189781, 49.820628) scale(-1, 1) translate(-547.189781, -49.820628) "></path>
                    <polygon id="Fill-50-Copy" transform="translate(378.094891, 68.825112) scale(-1, 1) translate(-378.094891, -68.825112) " points="376.189781 79.6502242 380 79.6502242 380 58 376.189781 58"></polygon>
                    <polygon id="Fill-52-Copy" transform="translate(494.094891, 7.322870) scale(-1, 1) translate(-494.094891, -7.322870) " points="492.189781 14.6457399 496 14.6457399 496 0 492.189781 0"></polygon>
                    <path d="M408.062502,95.2006182 C405.73018,95.2006182 403.832621,93.2964967 403.832621,90.9582631 C403.832621,88.6195701 405.73018,86.7180518 408.062502,86.7180518 C410.394823,86.7180518 412.292078,88.6195701 412.292078,90.9582631 L412.292078,90.9597944 L416,90.9597944 L416,90.9582631 C416,86.5705915 412.439747,83 408.062502,83 C403.685715,83 400.124088,86.5705915 400.124088,90.9582631 C400.124088,95.347466 403.685715,98.9192825 408.062502,98.9192825 L408.062502,95.2006182 Z" id="Fill-53-Copy" transform="translate(408.062044, 90.959641) scale(-1, 1) translate(-408.062044, -90.959641) "></path>
                    <path d="M440.440189,69.0016167 L440.440189,69 C440.440189,71.2444627 438.61872,73.0719559 436.379562,73.0719559 L436.379562,76.6412556 C440.581373,76.6412556 443.998974,73.2129054 444,69.0016167 L440.440189,69.0016167 Z" id="Fill-54-Copy" transform="translate(440.189781, 72.820628) scale(-1, 1) translate(-440.189781, -72.820628) "></path>
                    <path d="M522.99912,121.912365 L523,121.912365 C520.5783,121.820628 518.940135,120.801225 518.940135,118 L515.379562,118 C515.379562,122.638473 518.260095,125.641256 522.99912,125.641256 L522.99912,121.912365 Z" id="Fill-55-Copy" transform="translate(519.189781, 121.820628) scale(-1, 1) translate(-519.189781, -121.820628) "></path>
                    <path d="M464.379562,129.718123 L464.380735,129.718123 C466.618919,129.718123 468.441098,131.622435 468.441098,133.960254 C468.441098,136.298379 466.618919,138.201925 464.380735,138.201925 L464.379562,138.201925 L464.379562,141.919283 L464.380735,141.919283 C468.676805,141.919283 472,138.348775 472,133.960254 C472,129.570507 468.582845,126 464.380735,126 L464.379562,126 L464.379562,129.718123 Z" id="Fill-56-Copy" transform="translate(468.189781, 133.959641) scale(-1, 1) translate(-468.189781, -133.959641) "></path>
                    <path d="M290.015655,111 C286.164835,111 283.031762,114.600604 283.031762,118.493404 L283.029197,118.174367 L283.029197,119.550252 L286.694281,119.550252 L286.694281,118.174367 L286.695639,118.174367 C286.695639,116.323739 288.184848,114.818226 290.015655,114.818226 C291.846914,114.818226 293.33552,116.323739 293.33552,118.174367 L293.33552,126.282511 L297,126.282511 L297,118.174367 C297,113.881245 294.028522,111 290.015655,111" id="Fill-57-Copy" transform="translate(290.014599, 118.641256) scale(-1, 1) translate(-290.014599, -118.641256) "></path>
                    <path d="M579,68.7181233 L578.999122,68.7181233 C576.571405,68.7181233 574.837635,70.4833935 574.837635,72.9602538 C574.837635,75.4147572 576.593644,77.2019249 578.999122,77.2019249 L579,77.2019249 L579,80.9192825 L578.999122,80.9192825 C574.805447,80.9192825 571.365414,77.2927303 571.379606,73.1290018 C571.394529,68.7394082 574.805447,65 578.999122,65 L579,65 L579,68.7181233 Z" id="Fill-59-Copy" transform="translate(575.189781, 72.959641) scale(-1, 1) translate(-575.189781, -72.959641) "></path>
                </g>
            </g>
        </g>
    </g>
</svg>